PathFileType	4	(X/Y/Z)	C:/Users/opensim2020/Desktop/walking_exp_matlab/subject01_walking12_straight_01.trc	
DataRate	CameraRate	NumFrames	NumMarkers	Units	OrigDataRate	OrigDataStartFrame	OrigNumFrames	
100.00	100.00	7	44	mm	100.00	715	193	
Frame#	Time	LFHD			RFHD			LBHD			RBHD			C7			T10			CLAV			STRN			RBAK			LSHO			LUPA			LELB			LFRM			LWRA			LWRB			LFIN			RSHO			RUPA			RELB			RFRM			RWRA			RWRB			RFIN			LASI			RASI			LPSI			RPSI			LTHI			LKNE			LTIB			LANK			LHEE			LTOE			RTHI			RKNE			RTIB			RANK			RHEE			RTOE			*39			*40			*41			*42			*43			
		X1	Y1	Z1	X2	Y2	Z2	X3	Y3	Z3	X4	Y4	Z4	X5	Y5	Z5	X6	Y6	Z6	X7	Y7	Z7	X8	Y8	Z8	X9	Y9	Z9	X10	Y10	Z10	X11	Y11	Z11	X12	Y12	Z12	X13	Y13	Z13	X14	Y14	Z14	X15	Y15	Z15	X16	Y16	Z16	X17	Y17	Z17	X18	Y18	Z18	X19	Y19	Z19	X20	Y20	Z20	X21	Y21	Z21	X22	Y22	Z22	X23	Y23	Z23	X24	Y24	Z24	X25	Y25	Z25	X26	Y26	Z26	X27	Y27	Z27	X28	Y28	Z28	X29	Y29	Z29	X30	Y30	Z30	X31	Y31	Z31	X32	Y32	Z32	X33	Y33	Z33	X34	Y34	Z34	X35	Y35	Z35	X36	Y36	Z36	X37	Y37	Z37	X38	Y38	Z38	X39	Y39	Z39	X40	Y40	Z40	X41	Y41	Z41	X42	Y42	Z42	X43	Y43	Z43	X44	Y44	Z44	

97	0.960	-1140.72205	-98.47106	1678.52209	-1027.19287	-96.94881	1685.29822	-1143.98669	-205.27364	1614.41235	-1023.47174	-206.39008	1619.57129	-1100.30103	-226.65472	1436.30615	-1081.59790	-272.82281	1145.83728	-1087.32751	-85.12853	1364.80835	-1086.69849	-46.14833	1207.94800	-1020.48975	-290.31461	1245.35913	-1252.14612	-134.86946	1392.29041	-1337.80176	-144.42448	1208.13843	-1340.93225	-132.45145	1056.14417	-1367.99622	-62.97692	965.72803	-1357.35876	50.77033	884.69824	-1375.33960	-0.90785	860.33337	-1391.55615	65.69101	811.65228	-940.68152	-156.86551	1397.52722	-841.76947	-236.44824	1204.98267	-840.17621	-248.21886	1081.44006	-809.19641	-244.31850	962.22662	-830.39465	-192.02832	830.75342	-789.41510	-232.86740	841.37714	-793.14960	-213.96477	756.98315	-1180.31592	-107.52621	930.64380	-964.52655	-106.97600	937.51862	-1124.10291	-293.82886	948.17358	-977.71088	-288.99509	947.15881	-1229.17981	-173.09082	600.53027	-1211.27966	-198.81697	467.53738	-1215.11194	-270.70078	291.62137	-1161.65601	-324.51926	79.31773	-1109.81335	-373.99689	56.35358	-1162.35034	-180.28035	32.52930	-897.98529	-54.39345	623.41364	-925.21277	-4.26477	471.99976	-930.30493	-85.24800	314.39716	-987.12231	-144.39128	120.55782	-1046.77136	-190.47879	90.09405	-967.79828	-22.70192	53.69512	-1051.11414	-112.33573	1716.42957	-3102.01196	1973.02844	1024.09082	-3140.73511	2012.51965	1021.96948						 
98	0.970	-1139.15210	-88.51939	1678.19824	-1025.75366	-86.93564	1684.86401	-1142.73584	-195.14404	1614.23206	-1022.33527	-196.38124	1619.06641	-1099.55811	-216.26071	1435.91345	-1081.14905	-262.92148	1145.63159	-1086.67700	-74.94851	1364.45251	-1086.43005	-36.06950	1207.53491	-1020.38623	-280.27206	1244.88684	-1251.48242	-124.47197	1392.33215	-1337.61829	-133.34985	1208.49609	-1341.46716	-120.01960	1056.58252	-1368.69312	-48.59380	967.49835	-1357.99719	66.99133	889.25244	-1376.43298	15.94171	863.88641	-1392.50940	83.63815	816.64655	-939.77887	-146.99681	1396.91455	-841.69415	-227.65904	1204.51892	-840.38531	-240.22708	1081.04211	-809.59973	-237.17395	961.77606	-831.38654	-186.35521	829.81818	-790.02997	-226.55414	840.70453	-793.94556	-208.42618	756.24078	-1180.70850	-98.50544	930.06696	-964.77222	-96.71243	937.00305	-1123.42041	-284.54352	947.80768	-977.25549	-278.85318	946.73010	-1229.36707	-167.89113	600.53766	-1211.43201	-195.15352	467.61694	-1215.07178	-268.49976	292.40741	-1161.52393	-324.01263	80.49834	-1109.59338	-373.57556	58.20130	-1162.35840	-180.44154	32.68816	-898.62067	-44.08345	622.94061	-926.49854	7.10569	471.93652	-930.53357	-65.22411	309.68375	-986.41162	-112.73981	112.32862	-1045.59399	-156.57582	78.75216	-967.99695	13.40393	53.56781	-1049.06824	-102.31036	1716.30542	-3101.89575	1973.12427	1023.38544	-3140.73657	2012.51538	1021.97028						 
99	0.980	-1137.68103	-78.39222	1677.99207	-1024.27173	-76.73392	1684.36572	-1141.57825	-184.98909	1613.95837	-1021.03552	-186.25604	1618.54858	-1098.79785	-206.00677	1435.62634	-1080.49866	-252.94945	1145.36902	-1085.90454	-64.70595	1363.99963	-1086.06274	-26.01335	1207.05676	-1020.05688	-270.18338	1244.45667	-1250.71777	-114.08765	1392.26990	-1337.43188	-122.26295	1208.79907	-1341.94470	-107.69474	1056.89465	-1369.22559	-34.26328	969.35870	-1358.40259	82.94402	893.68243	-1377.14990	32.58738	867.17499	-1393.24866	101.31610	821.71655	-939.09882	-136.85571	1396.33398	-841.63702	-219.08496	1203.82874	-840.52313	-232.08580	1080.67688	-810.00116	-229.81152	961.28247	-831.84912	-179.77534	829.02271	-790.70605	-220.17853	840.19055	-794.65997	-202.40596	755.56689	-1181.09521	-89.49796	929.58710	-964.97662	-86.16689	936.50427	-1122.60461	-275.03409	947.59210	-976.67358	-268.56631	946.33783	-1229.38696	-162.38051	600.56720	-1211.54370	-191.34267	467.73367	-1214.94421	-266.30283	293.35480	-1161.25867	-323.39560	81.90302	-1109.37854	-373.13235	60.24033	-1162.31689	-180.48857	32.71194	-899.26135	-34.40646	621.95288	-927.92664	17.35370	471.46475	-930.29517	-45.57335	305.61234	-985.53766	-80.66358	104.93819	-1044.78247	-123.49900	69.29626	-967.95105	49.03331	54.02298	-1047.91504	-92.28772	1715.65735	-3101.97144	1973.23022	1023.49835	-3140.81201	2012.53137	1022.14722						 
100	0.990	-1136.26917	-68.20020	1677.77429	-1022.67444	-66.63439	1683.81885	-1140.21643	-174.80302	1613.56201	-1019.70074	-176.13707	1617.88025	-1097.89160	-195.64088	1435.18799	-1079.70300	-242.98940	1145.05237	-1085.46912	-54.43998	1363.60925	-1085.65222	-15.83813	1206.53748	-1019.60736	-260.10794	1243.95447	-1249.75793	-103.64044	1392.20215	-1337.04749	-111.09986	1209.01196	-1342.32166	-95.41014	1057.19226	-1369.67224	-20.11934	971.20984	-1358.61536	98.67358	897.97571	-1377.60791	48.86591	870.54553	-1393.81470	118.68711	826.69489	-938.13806	-126.70451	1395.61877	-841.38757	-210.00400	1203.50684	-840.49957	-223.88667	1080.22217	-810.26477	-222.27559	960.79272	-832.30011	-172.96709	828.17664	-791.17798	-212.75941	839.61212	-795.24121	-196.02672	754.87238	-1181.46411	-80.33678	929.16498	-965.21503	-75.50510	935.97803	-1121.75732	-265.48602	947.30469	-976.07135	-258.73184	946.18835	-1229.36047	-156.58904	600.69739	-1211.70178	-187.33641	468.11426	-1214.85425	-264.12973	294.45166	-1161.02893	-322.80084	83.37308	-1109.02991	-372.60980	62.18317	-1162.46521	-180.51468	32.75800	-900.01123	-25.62783	620.33191	-929.28333	27.22388	470.81470	-929.92023	-26.40040	301.96744	-984.26404	-48.45603	98.39948	-1043.19983	-90.06760	60.44469	-967.74872	84.18130	55.76857	-1045.98499	-82.15779	1715.43481	-3101.90918	1973.04260	1023.47247	-3140.60693	2012.43127	1021.88318						 
101	1.000	-1134.75317	-57.99301	1677.37524	-1021.01361	-56.58418	1683.15869	-1138.82776	-164.56792	1613.10254	-1018.33307	-166.03175	1617.17236	-1097.04028	-185.45477	1434.84326	-1078.70227	-233.06628	1144.71057	-1084.15503	-44.18364	1363.04468	-1085.20056	-5.70518	1205.96033	-1019.00427	-249.91760	1243.33154	-1248.77271	-93.14645	1392.07861	-1336.64905	-100.52757	1209.24622	-1342.53870	-83.17029	1057.47070	-1369.87695	-6.18265	972.79504	-1358.72778	114.07675	902.19031	-1377.70459	64.94328	873.53021	-1394.34619	135.74625	831.67169	-937.20740	-116.52787	1394.86548	-841.08997	-201.16507	1203.01965	-840.50861	-215.58511	1079.75403	-810.48279	-214.59081	960.20801	-832.56305	-165.63799	827.51086	-791.49854	-205.33556	838.92255	-795.71851	-188.97607	754.32416	-1181.83569	-71.08594	928.85730	-965.42108	-64.60838	935.45258	-1120.71533	-255.80605	947.01080	-975.20740	-247.71947	945.41302	-1229.36230	-150.58723	600.90491	-1211.80676	-183.24478	468.46976	-1214.80444	-261.90884	295.69016	-1160.77319	-322.09238	85.08026	-1108.63013	-371.96149	64.33110	-1162.42834	-180.53871	32.71606	-900.62677	-17.66326	618.45972	-930.70959	36.21748	469.64648	-929.47913	-7.87353	298.71326	-982.74762	-16.90110	93.10356	-1040.60828	-56.23852	52.19704	-967.46509	118.89143	59.14504	-1044.64233	-72.13306	1714.45471	-3102.09375	1973.03040	1023.86084	-3140.76904	2012.47827	1021.95447						 
102	1.010	-1132.94470	-47.77137	1676.84705	-1019.32202	-46.44973	1682.32141	-1137.38562	-154.33917	1612.53674	-1016.75970	-155.83755	1616.28540	-1095.90723	-175.08247	1434.28479	-1077.57642	-223.05205	1144.22375	-1083.09363	-33.85047	1362.40454	-1084.63867	4.45860	1205.30347	-1018.17010	-239.70200	1242.67627	-1247.64099	-82.62140	1391.85742	-1336.10559	-88.58839	1209.40173	-1342.54993	-71.06243	1057.72339	-1369.87744	7.64923	974.25305	-1358.66797	129.17493	906.20837	-1378.24951	80.32835	876.79126	-1394.47290	152.32315	836.27991	-936.03674	-106.43315	1393.97266	-840.76068	-192.39206	1202.32153	-840.29688	-207.19907	1079.22278	-810.55212	-206.65863	959.61536	-832.67322	-157.97675	826.82629	-791.82501	-198.47800	838.25989	-796.13568	-181.69354	753.59540	-1182.10767	-61.73759	928.58496	-965.61053	-53.53706	934.83521	-1119.56042	-245.98735	946.69751	-974.33539	-237.40332	945.09991	-1229.29272	-144.30116	601.16388	-1211.92810	-178.90953	469.02209	-1214.74011	-259.57880	297.05341	-1160.60046	-321.31097	86.90239	-1108.32068	-371.29770	66.75691	-1162.48743	-180.53954	32.71740	-901.12970	-10.10018	616.09125	-931.86554	45.26090	468.27734	-929.01709	9.82367	295.82098	-981.08008	13.95917	89.09853	-1038.41064	-23.46834	44.70400	-966.57263	151.71684	64.01780	-1042.62561	-61.96503	1713.94373	-3101.88574	1973.09814	1023.48267	-3140.54541	2012.50574	1022.02155						 
103	1.020	-1131.17566	-37.54958	1676.19165	-1017.53723	-36.23755	1681.49902	-1135.68445	-144.04965	1611.82288	-1015.14294	-145.60164	1615.37500	-1094.64197	-164.66560	1433.57336	-1076.27930	-212.92323	1143.68188	-1081.91174	-23.48488	1361.71521	-1083.99658	14.57621	1204.56238	-1017.15082	-229.38222	1241.96021	-1246.42053	-72.10913	1391.59473	-1335.43250	-77.28584	1209.54187	-1342.47131	-59.04609	1057.75391	-1369.73096	21.42133	975.88708	-1358.51001	143.95215	910.06763	-1378.25000	96.18624	879.74847	-1394.34521	168.45454	840.59210	-934.80035	-96.06772	1393.11987	-840.22485	-183.25883	1201.96716	-840.01801	-198.66818	1078.68579	-810.51672	-198.56981	958.92474	-832.73944	-149.88934	826.13159	-792.09558	-190.75485	837.53174	-796.40265	-173.93855	752.83508	-1182.34375	-52.26303	928.27454	-965.81140	-42.26488	934.15820	-1118.28943	-235.92090	946.32837	-973.31262	-225.93018	944.18555	-1229.13062	-137.80237	601.29047	-1212.00281	-174.30177	469.55457	-1214.76831	-257.05927	298.49539	-1160.59082	-320.56641	88.71823	-1108.11084	-370.53098	69.21230	-1162.54895	-180.46539	32.67691	-901.18726	-3.08531	613.34674	-932.91541	53.74298	466.68628	-928.69928	26.87397	293.36447	-979.11646	43.81612	86.40516	-1035.68835	8.73229	39.78026	-965.53546	183.27393	69.98358	-1040.62720	-51.77686	1713.09253	-3101.89819	1973.13757	1023.56506	-3140.57861	2012.48108	1021.97253						 
